<svg id="Layer_2" data-name="Layer 2" xmlns="http://www.w3.org/2000/svg" width="27.03" height="28.5" viewBox="0 0 27.03 28.5">
  <g id="Layer_1" data-name="Layer 1">
    <path id="Path_7" data-name="Path 7" d="M35.434,60.964H15.674a.23.23,0,0,0-.07-.042,2.889,2.889,0,0,1-2.335-2.908c.015-3.069,0-6.139,0-9.21,0-.077.011-.154.018-.241a9.817,9.817,0,0,0,10.733.509v.748H27.1v-3.1l-.314-.033,1.381-2.417V45.63h3.123V42.14H28.742V39.77h9.12V57.981a2.888,2.888,0,0,1-1.791,2.792C35.864,60.849,35.647,60.9,35.434,60.964Zm-4.144-2.14V55.083H28.441c-.217,0-.287.059-.285.281.011,1.1,0,2.186,0,3.279a1.317,1.317,0,0,0,.028.184Zm-8.341,0V55.1h-3.1v3.729ZM35.478,55.1h-3.1v3.725h3.1Zm-16.716,0H15.684v3.722h3.082Zm8.329,3.725V55.1H24.04v3.729Zm5.29-16.67v3.481h3.086V42.156ZM28.173,54.021H31.3V50.9H28.173Zm0-7.307v3.1H31.3v-3.1ZM19.85,50.9v3.123h3.106V50.9Zm15.614,3.123V50.915H32.381v3.112Zm-19.8,0h3.086V50.909H15.671Zm11.429-3.11H24.03v3.1H27.1Zm8.391-4.19h-3.1v3.1h3.1Z" transform="translate(-10.832 -32.465)" fill="#fff"/>
    <path id="Path_8" data-name="Path 8" d="M8.905,0c.524.107,1.056.184,1.565.327A8.207,8.207,0,1,1,.1,9.5c-.031-.2-.07-.4-.1-.6V7.515a1.387,1.387,0,0,0,.05-.184,8.178,8.178,0,0,1,5.9-7C6.459.184,6.991.107,7.515,0ZM1.451,8.2A6.758,6.758,0,1,0,8.2,1.451,6.758,6.758,0,0,0,1.451,8.2Z" fill="#fff"/>
    <path id="Path_9" data-name="Path 9" d="M97.552,16.391h-9.2A9.873,9.873,0,0,0,86.4,12h.386c2.6,0,5.211.031,7.816,0a2.866,2.866,0,0,1,2.939,2.744C97.57,15.267,97.552,15.813,97.552,16.391Z" transform="translate(-70.529 -9.791)" fill="#fff"/>
    <path id="Path_10" data-name="Path 10" d="M38.086,19.13h1.161v3.22a.344.344,0,0,0,.184.367.7.7,0,0,1,.3.281c.119.248.31.265.551.259.516-.013,1.034,0,1.567,0v1.161h-1.64a.468.468,0,0,0-.45.226,1.247,1.247,0,0,1-1.339.529A1.286,1.286,0,0,1,37.346,24.1a1.262,1.262,0,0,1,.551-1.359.426.426,0,0,0,.209-.4V19.45Z" transform="translate(-30.457 -15.616)" fill="#fff"/>
    <path id="Path_11" data-name="Path 11" d="M72.745,41.18a.573.573,0,0,1,.582.575.58.58,0,0,1-.586.575.588.588,0,0,1-.571-.566A.58.58,0,0,1,72.745,41.18Z" transform="translate(-58.913 -33.615)" fill="#fff"/>
    <path id="Path_12" data-name="Path 12" d="M42.119,10.55a.575.575,0,1,1-.41.168A.571.571,0,0,1,42.119,10.55Z" transform="translate(-33.909 -8.612)" fill="#fff"/>
    <path id="Path_13" data-name="Path 13" d="M11.445,41.18a.575.575,0,1,1-.409.17A.575.575,0,0,1,11.445,41.18Z" transform="translate(-8.873 -33.616)" fill="#fff"/>
    <path id="Path_14" data-name="Path 14" d="M41.537,72.3a.579.579,0,1,1,.549.608A.579.579,0,0,1,41.537,72.3Z" transform="translate(-33.906 -58.567)" fill="#fff"/>
    <path id="Path_15" data-name="Path 15" d="M57.7,14.781a.573.573,0,1,1-.565-.549.573.573,0,0,1,.565.549Z" transform="translate(-46.165 -11.618)" fill="#fff"/>
    <path id="Path_16" data-name="Path 16" d="M27.34,14.945a.564.564,0,0,1-.577.575.575.575,0,1,1,.577-.575Z" transform="translate(-21.379 -11.73)" fill="#fff"/>
    <path id="Path_17" data-name="Path 17" d="M15.829,25.9a.562.562,0,0,1-.584.568.573.573,0,0,1-.566-.59.584.584,0,0,1,.575-.551.573.573,0,0,1,.575.573Z" transform="translate(-11.982 -20.677)" fill="#fff"/>
    <path id="Path_18" data-name="Path 18" d="M68.644,26.622a.566.566,0,0,1-.571-.56.573.573,0,1,1,1.144-.028.566.566,0,0,1-.573.588Z" transform="translate(-55.567 -20.771)" fill="#fff"/>
    <path id="Path_19" data-name="Path 19" d="M16.138,56.828a.56.56,0,0,1-.6.566.571.571,0,1,1,.59-.566Z" transform="translate(-12.237 -45.919)" fill="#fff"/>
    <path id="Path_20" data-name="Path 20" d="M27.172,67.743a.56.56,0,0,1-.551.569.571.571,0,0,1,0-1.143A.564.564,0,0,1,27.172,67.743Z" transform="translate(-21.265 -54.831)" fill="#fff"/>
    <path id="Path_21" data-name="Path 21" d="M58,67.889a.573.573,0,1,1-.276-.523A.573.573,0,0,1,58,67.889Z" transform="translate(-46.411 -54.924)" fill="#fff"/>
    <path id="Path_22" data-name="Path 22" d="M68.922,56.534a.571.571,0,1,1-.56-.584.571.571,0,0,1,.56.584Z" transform="translate(-55.329 -45.672)" fill="#fff"/>
  </g>
</svg>
