<svg id="Layer_2" data-name="Layer 2" xmlns="http://www.w3.org/2000/svg" width="28.229" height="28.232" viewBox="0 0 28.229 28.232">
  <g id="Layer_1" data-name="Layer 1">
    <path id="Path_29" data-name="Path 29" d="M0,15.181V12.8c.036-.139.087-.276.109-.418A13.835,13.835,0,0,1,9.589.775,26.74,26.74,0,0,1,13.048,0h2.133a3.863,3.863,0,0,0,.42.1A13.781,13.781,0,0,1,27.46,9.661a25.774,25.774,0,0,1,.769,3.513v2.133a2.5,2.5,0,0,0-.105.346,13.8,13.8,0,0,1-9.258,11.7,27.843,27.843,0,0,1-3.685.878H13.048a3.529,3.529,0,0,0-.419-.105A13.759,13.759,0,0,1,.9,18.983,26.288,26.288,0,0,1,0,15.181Zm2.356-1.117A11.755,11.755,0,1,0,13.822,2.36,11.749,11.749,0,0,0,2.356,14.064Z" fill="#fff"/>
    <path id="Path_30" data-name="Path 30" d="M93.956,78.516c0-1.337-.023-2.675.018-4.015a1.115,1.115,0,0,1,.4-.812.957.957,0,0,1,.831.134c1.891,1.337,3.764,2.7,5.63,4.075.518.376.545.858.034,1.235q-2.873,2.118-5.781,4.187c-.561.4-1.117.053-1.129-.671C93.947,81.274,93.956,79.895,93.956,78.516Z" transform="translate(-82.162 -64.4)" fill="#fff"/>
  </g>
</svg>
