<svg id="Layer_2" data-name="Layer 2" xmlns="http://www.w3.org/2000/svg" width="31.524" height="28.512" viewBox="0 0 31.524 28.512">
  <g id="Layer_1" data-name="Layer 1" transform="translate(0 0)">
    <path id="Path_5" data-name="Path 5" d="M0,5.589c.075-.336.14-.676.228-1.01A6.161,6.161,0,0,1,5.992.006c2.274-.039,4.546-.022,6.82-.022H25.1A6.073,6.073,0,0,1,30.533,2.96a6.006,6.006,0,0,1-1.993,8.512,6.444,6.444,0,0,1-3.374.946H23.512a.384.384,0,0,0-.367.255,16.619,16.619,0,0,1-1.58,3.351,8.537,8.537,0,0,1-2.889,2.915c-.051.029-.1.07-.163.118a3.418,3.418,0,0,1,.342,2.871H20.1a1.1,1.1,0,0,1,1.1,1.1v4.361a1.1,1.1,0,0,1-1.1,1.1H11.369a1.1,1.1,0,0,1-1.1-1.1V23.039a1.1,1.1,0,0,1,1.1-1.1h1.245a3.419,3.419,0,0,1,.338-2.867c-.367-.27-.751-.522-1.1-.806A9.48,9.48,0,0,1,9.32,14.979c-.367-.749-.676-1.532-.992-2.307a.344.344,0,0,0-.367-.261,21.251,21.251,0,0,1-2.607-.072A6.165,6.165,0,0,1,.066,7.08,2.2,2.2,0,0,0,0,6.818Zm8.782-3.4c.042.735.075,1.424.123,2.114a28.618,28.618,0,0,0,1.486,7.654,11.257,11.257,0,0,0,2.559,4.352,3.725,3.725,0,0,0,4.469.794,6.228,6.228,0,0,0,2.245-2.223,16.857,16.857,0,0,0,2.083-5.215,33.8,33.8,0,0,0,.847-5.847c.035-.535,0-1.075,0-1.624ZM7.594,10.2A39.126,39.126,0,0,1,6.6,2.214,4.015,4.015,0,0,0,3.707,9.353,5.292,5.292,0,0,0,7.594,10.2Zm16.268,0c.566,0,1.067.022,1.565,0a4.017,4.017,0,1,0-.573-8.011,38.943,38.943,0,0,1-.992,8.02ZM19.007,24.147H12.451v2.146h6.556Zm-3.277-2.215a1.1,1.1,0,1,0-1.1-1.1A1.1,1.1,0,0,0,15.729,21.932Z" transform="translate(0 0.019)" fill="#fff"/>
    <path id="Path_6" data-name="Path 6" d="M75.6,24v2.164H69.78V24Z" transform="translate(-56.962 -19.588)" fill="#fff"/>
  </g>
</svg>
