<svg id="Layer_2" data-name="Layer 2" xmlns="http://www.w3.org/2000/svg" width="29.318" height="28.99" viewBox="0 0 29.318 28.99">
  <g id="Layer_1" data-name="Layer 1">
    <path id="Path_25" data-name="Path 25" d="M29.213,50.7c-.054-.019-.11-.041-.17-.064a1.3,1.3,0,0,0-.442-.124c-.39-.019-.783-.015-1.165-.014H26.9v-3.78h.871c.542,0,.7-.156.7-.693V39.866a6.272,6.272,0,0,0-.049-.812,2.573,2.573,0,0,0-2.468-2.316c-1.249-.012-2.489,0-3.653,0a2.3,2.3,0,0,0-1.865.934,2.933,2.933,0,0,0-.636,1.865v6.595c0,.456.181.637.646.643h.943V50.49H19.907V48.92c0-.553-.17-.72-.709-.722H17.485V44.413h.7a1.147,1.147,0,0,1,.153,0,.734.734,0,0,0,.558-.151.773.773,0,0,0,.146-.568V39.542c0-.829,0-1.7-.025-2.533a2.6,2.6,0,0,0-2.712-2.543c-.81.031-1.636.022-2.436.015h-.982a2.36,2.36,0,0,0-1.972,1.007,3.063,3.063,0,0,0-.592,1.861q0,3.213,0,6.425c0,.509.183.678.7.678h.948v3.73H10.1c-.509,0-.69.18-.69.678v3.151H7.985v-3.7H9.015a.519.519,0,0,0,.385-.137.541.541,0,0,0,.137-.4V43.185c0-.761.008-1.549-.024-2.326A2.616,2.616,0,0,0,6.8,38.306c-.807.031-1.633.022-2.429.015H3.384a2.373,2.373,0,0,0-2,1.022A3.051,3.051,0,0,0,.814,41.2q0,3.243,0,6.483c0,.488.183.678.678.678H2.509V52.05H.675a.678.678,0,0,0-.651.32L0,52.411v4.86l.036.046a.812.812,0,0,0,.705.29h27.9a.7.7,0,0,0,.651-.3l.027-.042V50.743Zm-7.83-7.968v2.955h-.561V39.656a2.141,2.141,0,0,1,.305-1.2,1.407,1.407,0,0,1,1.268-.707h3.4A1.581,1.581,0,0,1,27.46,39.2a2.622,2.622,0,0,1,.034.4q0,3.016,0,6.03a.12.12,0,0,1,0,.024h-.559v-3a.753.753,0,0,0-.17-.509.558.558,0,0,0-.578-.093.678.678,0,0,0-.309.509c-.014.439-.012.885-.012,1.317V44.7c0,.217-.012.434-.02.649-.012.268-.024.546-.022.821,0,.771.015,1.541.025,2.312,0,.509.014,1.017.019,1.526a.756.756,0,0,1-.056.392.751.751,0,0,1-.393.061h-.8v-3.95a.578.578,0,0,0-.315-.609.527.527,0,0,0-.5.036.583.583,0,0,0-.251.49v4.023h-.19a6.7,6.7,0,0,1-.787-.014c-.054,0-.137-.014-.137-.31V42.766c0-.1,0-.212-.008-.32a.481.481,0,0,0-.509-.458.5.5,0,0,0-.526.437,1.707,1.707,0,0,0-.014.259ZM28.3,51.551v5.011H19.936v-5.02ZM11.953,43.37h-.607V37.4a2.141,2.141,0,0,1,.381-1.319,1.344,1.344,0,0,1,1.136-.6h3.65A1.569,1.569,0,0,1,18,37.016c.022.236.02.48.019.717v5.581h-.509v-3a.678.678,0,0,0-.17-.509.517.517,0,0,0-.368-.129c-.159,0-.529.073-.531.643v7.557c0,.248-.053.3-.293.309s-.488,0-.744,0H15.2V44.353a2.859,2.859,0,0,0-.01-.292.476.476,0,0,0-.485-.441.493.493,0,0,0-.544.412,1.419,1.419,0,0,0-.019.29v3.762a.987.987,0,0,0,0,.105.208.208,0,0,1-.078,0c-.085,0-.17-.01-.253-.01h-.378c-.368,0-.4-.037-.4-.4V40.43a.831.831,0,0,0-.17-.626.468.468,0,0,0-.358-.127c-.359,0-.542.253-.542.749Zm6.873,5.9v7.279H10.475V49.276ZM2.49,44.257v3.012H1.88V41.246a2.189,2.189,0,0,1,.3-1.187,1.414,1.414,0,0,1,1.28-.734H6.806a1.661,1.661,0,0,1,1.8,1.8c.005,1.117,0,2.285,0,3.4v2.7H7.99V44.238a.719.719,0,0,0-.17-.537.5.5,0,0,0-.361-.131c-.17,0-.537.071-.537.678V51.66a1.709,1.709,0,0,1,0,.232c-.019.134-.076.17-.17.17H5.776V48.252c0-.378-.039-.78-.522-.783a.529.529,0,0,0-.364.132.911.911,0,0,0-.181.678v3.77h-.22c-.3,0-.59.01-.875-.014-.036,0-.1-.008-.1-.273v-7.7a.458.458,0,0,0-.439-.492H3.028a.509.509,0,0,0-.519.431.929.929,0,0,0-.019.251Zm6.893,8.866v3.435H1.034V53.123Z" transform="translate(0 -28.621)" fill="#fff"/>
    <path id="Path_26" data-name="Path 26" d="M128.644,19.248h0a2.712,2.712,0,0,0,1.928-.8,2.8,2.8,0,0,0,.82-2,2.75,2.75,0,0,0-2.745-2.8h0a2.712,2.712,0,0,0-1.944.81,2.819,2.819,0,0,0,1.946,4.787Zm-1.727-2.807a1.794,1.794,0,0,1,.526-1.277,1.7,1.7,0,0,1,1.2-.5h.008a1.763,1.763,0,0,1,1.727,1.783,1.79,1.79,0,0,1-.532,1.273,1.7,1.7,0,0,1-1.2.509h0a1.76,1.76,0,0,1-1.727-1.794Z" transform="translate(-104.557 -11.336)" fill="#fff"/>
    <path id="Path_27" data-name="Path 27" d="M17.426,28.3h.012a2.712,2.712,0,0,0,1.922-.8,2.8,2.8,0,0,0,.829-1.994,2.745,2.745,0,0,0-2.746-2.8h0a2.775,2.775,0,0,0-2.753,2.773,2.821,2.821,0,0,0,.8,1.987,2.7,2.7,0,0,0,1.938.839Zm-1.717-2.814a1.787,1.787,0,0,1,.537-1.268,1.7,1.7,0,0,1,1.187-.5h.022a1.743,1.743,0,0,1,1.714,1.8,1.778,1.778,0,0,1-.527,1.268,1.7,1.7,0,0,1-1.2.492h-.015A1.763,1.763,0,0,1,15.708,25.485Z" transform="translate(-12.199 -18.852)" fill="#fff"/>
    <path id="Path_28" data-name="Path 28" d="M72.992,5.594h0a2.712,2.712,0,0,0,1.926-.805A2.818,2.818,0,0,0,74.937.8,2.712,2.712,0,0,0,73.006,0h0a2.726,2.726,0,0,0-1.943.81,2.792,2.792,0,0,0-.814,2A2.784,2.784,0,0,0,72.992,5.594ZM71.27,2.785A1.763,1.763,0,0,1,73,1.017h.019A1.766,1.766,0,0,1,74.738,2.79a1.79,1.79,0,0,1-.522,1.278,1.717,1.717,0,0,1-1.222.509h0a1.7,1.7,0,0,1-1.2-.509,1.77,1.77,0,0,1-.522-1.283Z" transform="translate(-58.34 0)" fill="#fff"/>
  </g>
</svg>
