<svg id="Layer_2" data-name="Layer 2" xmlns="http://www.w3.org/2000/svg" width="28.477" height="28.512" viewBox="0 0 28.477 28.512">
  <g id="Layer_1" data-name="Layer 1" transform="translate(0 0)">
    <path id="Path_4" data-name="Path 4" d="M19.617,28.5a1.1,1.1,0,0,1-.81-.3,1.116,1.116,0,0,1-.307-.817c0-3.242,0-6.546,0-9.8a1.109,1.109,0,0,1,.312-.822,1.091,1.091,0,0,1,.818-.3h2.443c.079-.643.164-1.287.246-1.916l.081-.62a.134.134,0,0,0,0-.024h-2.77a1.125,1.125,0,0,1-.83-.31,1.1,1.1,0,0,1-.3-.82c0-.369,0-.739,0-1.108,0-.541,0-1.1.016-1.654a2.221,2.221,0,0,1,.774-1.628,2.379,2.379,0,0,1,1.845-.548,8.061,8.061,0,0,0,1.471,0V5.663h-.718c-.829,0-1.612-.009-2.4.043a3.627,3.627,0,0,0-3.139,2.1,3.9,3.9,0,0,0-.415,1.9v3.068a1.122,1.122,0,0,1-1.125,1.13H12.44v2.562H14.8a1.058,1.058,0,0,1,1.134,1.12v9.82a1.042,1.042,0,0,1-1.115,1.1H2.574A2.584,2.584,0,0,1-.01,25.926V2.584A2.584,2.584,0,0,1,2.576,0H25.883a2.584,2.584,0,0,1,2.584,2.584V25.92A2.584,2.584,0,0,1,25.883,28.5H19.621Zm2.519-1.723h3.749a.861.861,0,0,0,.861-.861V2.584a.861.861,0,0,0-.861-.861H2.576a.861.861,0,0,0-.861.861V25.915a.861.861,0,0,0,.861.861H14.213v-8.6H11.848a1.116,1.116,0,0,1-.827-.307,1.1,1.1,0,0,1-.307-.818c0-1.17,0-2.4,0-3.768a1.1,1.1,0,0,1,.3-.811,1.123,1.123,0,0,1,.813-.3h2.376V9.7a5.614,5.614,0,0,1,.62-2.717,5.375,5.375,0,0,1,4.543-3c.849-.057,1.7-.052,2.524-.048h1.278a1.115,1.115,0,0,1,.842.308,1.147,1.147,0,0,1,.315.853V8.386a1.024,1.024,0,0,1-1.163,1.149c-.105,0-.238,0-.42.014a10.023,10.023,0,0,1-1.8,0,.663.663,0,0,0-.517.138.517.517,0,0,0-.172.386c-.016.527-.016,1.072-.014,1.6v.517h2.9a1.085,1.085,0,0,1,.879.345,1.1,1.1,0,0,1,.2.9c-.014.1-.029.191-.043.288-.021.14-.041.279-.06.419l-.081.624c-.105.791-.212,1.609-.307,2.412a1.085,1.085,0,0,1-1.149,1H20.222v8.6Z" transform="translate(0.01 0)" fill="#fff"/>
  </g>
</svg>
