<svg id="Layer_2" data-name="Layer 2" xmlns="http://www.w3.org/2000/svg" width="23.345" height="20.486" viewBox="0 0 23.345 20.486">
  <g id="Layer_1" data-name="Layer 1" transform="translate(0 0)">
    <path id="Path_2" data-name="Path 2" d="M71.466,12.882a6.442,6.442,0,1,1,6.414-6.5A6.43,6.43,0,0,1,71.466,12.882ZM65.711,6.421a5.731,5.731,0,1,0,11.461-.012,5.73,5.73,0,0,0-11.461.013Z" transform="translate(-59.76 0.001)" fill="#fff"/>
    <path id="Path_3" data-name="Path 3" d="M11.343,185.9a16.923,16.923,0,0,1,11.8,4.8c.172.161.3.333.107.551-.221.251-.421.132-.617-.054a15.9,15.9,0,0,0-5.594-3.568c-5.592-2.015-10.678-1.019-15.293,2.644-.378.3-.725.637-1.083.967-.185.17-.372.232-.558.028s-.1-.388.076-.559a16.4,16.4,0,0,1,9.109-4.608C10.067,185.989,10.859,185.947,11.343,185.9Z" transform="translate(0.004 -170.915)" fill="#fff"/>
  </g>
</svg>
