<svg id="Layer_2" data-name="Layer 2" xmlns="http://www.w3.org/2000/svg" width="21.507" height="20.486" viewBox="0 0 21.507 20.486">
  <g id="Layer_1" data-name="Layer 1" transform="translate(0)">
    <path id="Path_1" data-name="Path 1" d="M17.223,12.305c1.119-1.046,2.242-2.134,3.328-3.186l.74-.716a.519.519,0,0,0,.179-.619c-.07-.214-.173-.34-.519-.39L18.3,7.014c-1.025-.15-2.084-.305-3.127-.452a1.654,1.654,0,0,1-1.32-.972c-.426-.877-.867-1.766-1.294-2.627-.4-.811-.817-1.649-1.221-2.478C11.107,0,10.916,0,10.748,0s-.347,0-.571.475c-.39.8-.791,1.61-1.179,2.393-.441.888-.9,1.807-1.331,2.712A1.674,1.674,0,0,1,6.3,6.562c-.866.121-1.748.251-2.6.38-.994.146-2.022.3-3.036.436-.518.07-.571.257-.626.421-.046.149-.1.336.274.7,1.331,1.292,2.714,2.651,4.108,4.04a1.6,1.6,0,0,1,.475,1.281c-.1.708-.224,1.418-.343,2.1l-.126.727c-.137.807-.273,1.617-.4,2.369l-.137.81a.67.67,0,0,0,.27.571.6.6,0,0,0,.591-.029c1.661-.856,3.41-1.776,5.2-2.729a1.639,1.639,0,0,1,.781-.209,1.694,1.694,0,0,1,.807.219c1.067.571,2.158,1.141,3.213,1.694l1.945,1.021c.39.205.54.1.65.016.19-.137.285-.285.22-.655-.109-.619-.216-1.236-.323-1.857-.205-1.2-.418-2.432-.651-3.637A1.933,1.933,0,0,1,17.223,12.305Zm-1.635.913c.179.973.339,1.929.507,2.941.069.414.139.831.211,1.255l.293,1.727-1.608-.693c-.056-.025-.106-.045-.151-.064-.11-.046-.214-.088-.327-.147l-.622-.326c-.9-.475-1.831-.959-2.744-1.446a.769.769,0,0,0-.82,0c-.867.464-1.726.914-2.634,1.39l-1.141.6-1.7.9.456-2.708c.122-.723.238-1.413.355-2.1.03-.18.061-.36.1-.54.049-.285.1-.571.145-.856.027-.165.029-.349-.258-.646-.7-.719-1.384-1.459-2.05-2.175q-.408-.432-.814-.87L1.539,8.12l2.422-.351,1.652-.242q.833-.12,1.666-.233L7.4,7.278a.69.69,0,0,0,.583-.449c.43-.9.86-1.777,1.318-2.709l1.4-2.867,1.181,2.329c.232.456.453.89.673,1.326q.131.261.264.52c.242.475.491.961.723,1.457a.65.65,0,0,0,.6.4c1.37.19,2.73.385,3.762.533a3.175,3.175,0,0,1,.356.076l.143.035,1.659.389-1.2,1.208-.373.38c-.273.277-.531.538-.8.8-.578.571-1.171,1.134-1.742,1.684l-.109.1A.7.7,0,0,0,15.588,13.218Z" transform="translate(-0.003)" fill="#fff"/>
  </g>
</svg>
