<svg xmlns="http://www.w3.org/2000/svg" viewBox="0 0 577.62 577.62"><defs><style>.cls-1{fill:#e9971c;}</style></defs><title>Asset 25</title><g id="Layer_2" data-name="Layer 2"><g id="Layer_1-2" data-name="Layer 1"><path class="cls-1" d="M576.62,219.5c-1.88-6-4.65-9.59-14-11l-71-10.71c-27.51-4.25-55.95-8.66-83.95-12.73a44.68,44.68,0,0,1-35.43-27.4c-11.54-24.72-23.29-49.77-34.64-74-10.77-22.86-21.94-46.48-32.8-69.83C298.25,0,293.14,0,288.75,0s-9.32,0-15.33,13.39C262.94,36,252.17,58.78,241.66,80.83c-11.83,25-24.07,50.93-35.74,76.45a45.14,45.14,0,0,1-36.75,27.66c-23.27,3.41-46.91,7.07-69.81,10.71-26.67,4.13-54.27,8.4-81.53,12.27-13.91,2-15.33,7.25-16.8,11.87s-2.89,9.47,7.36,19.77C44.13,276,81.26,314.28,118.68,353.43a46.44,46.44,0,0,1,12.76,36.11c-2.75,19.95-6,40-9.21,59.3l-3.38,20.5c-3.67,22.75-7.33,45.56-10.74,66.78L104.44,559A19.25,19.25,0,0,0,111.69,575a15.42,15.42,0,0,0,15.88-.81c44.6-24.14,91.55-50.06,139.53-76.91a42.32,42.32,0,0,1,21-5.78,44,44,0,0,1,21.68,6.18c28.64,16.08,57.94,32.16,86.26,47.72l52.2,28.87c10.48,5.78,14.44,2.69,17.32.47,5.11-3.87,7.65-8.06,5.78-18.48-2.89-17.32-5.78-34.85-8.66-52.34-5.52-33.69-11.23-68.54-17.5-102.52a56.09,56.09,0,0,1,17.32-54.62c30.06-29.48,60.2-60.14,89.5-89.79l19.86-20.21A15.1,15.1,0,0,0,576.62,219.5Z"/></g></g></svg>